<?xml version="1.0" encoding="UTF-8" standalone="no"?>
<!-- Created with Inkscape (http://www.inkscape.org/) -->

<svg
   width="210mm"
   height="297mm"
   viewBox="0 0 210 297"
   version="1.1"
   id="svg5"
   inkscape:version="1.2.1 (9c6d41e, 2022-07-14)"
   sodipodi:docname="mplsartindustry.svg"
   xmlns:inkscape="http://www.inkscape.org/namespaces/inkscape"
   xmlns:sodipodi="http://sodipodi.sourceforge.net/DTD/sodipodi-0.dtd"
   xmlns="http://www.w3.org/2000/svg"
   xmlns:svg="http://www.w3.org/2000/svg">
  <sodipodi:namedview
     id="namedview7"
     pagecolor="#ffffff"
     bordercolor="#666666"
     borderopacity="1.0"
     inkscape:showpageshadow="2"
     inkscape:pageopacity="0.0"
     inkscape:pagecheckerboard="0"
     inkscape:deskcolor="#d1d1d1"
     inkscape:document-units="mm"
     showgrid="false"
     inkscape:zoom="4"
     inkscape:cx="256.75"
     inkscape:cy="670.125"
     inkscape:window-width="1317"
     inkscape:window-height="741"
     inkscape:window-x="0"
     inkscape:window-y="25"
     inkscape:window-maximized="0"
     inkscape:current-layer="layer1" />
  <defs
     id="defs2" />
  <g
     inkscape:label="Layer 1"
     inkscape:groupmode="layer"
     id="layer1">
    <path
       id="path1240"
       style="color:#000000;fill:#204a87"
       d="m 76.935354,169.22533 v 0.77721 h 3.346565 v 14.31437 H 77.00305 v -5.1e-4 h -0.08113 l -0.533818,-0.81494 c 0.145288,-0.2794 0.24055,-0.57003 0.285254,-0.87178 0.05588,-0.31293 0.08372,-0.62551 0.08372,-0.93844 v -2.90009 h -0.670243 v 2.90009 c 0,0.18999 -0.01124,0.37999 -0.03359,0.56999 -0.01117,0.18999 -0.04489,0.37412 -0.100769,0.55293 l -2.262911,-3.47007 c -0.06706,-0.10058 -0.134482,-0.19533 -0.201538,-0.28474 -0.05588,-0.10058 -0.117429,-0.2012 -0.184485,-0.30179 h 0.01705 l 0.01654,-0.0171 c 0.312927,-0.21235 0.620672,-0.43555 0.922424,-0.67024 0.312928,-0.2347 0.586443,-0.49749 0.821138,-0.78807 0.245872,-0.30175 0.43588,-0.63733 0.569992,-1.00614 0.145287,-0.3688 0.218074,-0.74294 0.218074,-1.12293 0,-0.34645 -0.05619,-0.68151 -0.167948,-1.00562 -0.100584,-0.33528 -0.268116,-0.63179 -0.502812,-0.88883 -0.234696,-0.26822 -0.519449,-0.45824 -0.854728,-0.57 -0.324104,-0.12294 -0.659685,-0.18448 -1.00614,-0.18448 -0.33528,0 -0.670344,0.0615 -1.005624,0.18448 -0.335279,0.11176 -0.620549,0.30178 -0.855245,0.57 -0.223519,0.25704 -0.391051,0.55355 -0.502811,0.88883 -0.100584,0.32411 -0.150896,0.65917 -0.150896,1.00562 0,0.43587 0.07815,0.86031 0.234611,1.27383 0.16764,0.40233 0.374763,0.78235 0.620634,1.13998 0.245872,0.34645 0.491551,0.69863 0.737423,1.05627 -0.357632,0.25704 -0.698573,0.54767 -1.022676,0.87178 -0.312928,0.3241 -0.558607,0.69824 -0.737423,1.12293 -0.178816,0.41351 -0.268201,0.84971 -0.268201,1.30793 0,0.41351 0.07279,0.82672 0.218075,1.24023 0.145288,0.40233 0.363131,0.76039 0.653707,1.07332 0.301751,0.31293 0.653413,0.53613 1.055749,0.67024 0.413512,0.12294 0.833117,0.18449 1.257804,0.18449 0.301752,0 0.597743,-0.0337 0.888318,-0.10077 0.301752,-0.0559 0.586505,-0.16185 0.854728,-0.31833 0.268224,-0.15646 0.497305,-0.34647 0.687297,-0.56999 l 0.373104,0.56017 0.07441,0.11783 0.195337,0.31471 0.289905,-0.004 h 0.0062 7.550443 v -0.77722 h -3.346565 v -14.31437 h 3.346565 v -0.77721 z m -3.581177,3.88245 c 0.257048,0 0.508604,0.0503 0.754476,0.1509 0.245872,0.0894 0.4466,0.24033 0.603064,0.45268 0.16764,0.20117 0.290738,0.43025 0.368969,0.6873 0.07823,0.24587 0.117306,0.49743 0.117306,0.75447 0,0.44704 -0.11186,0.87149 -0.33538,1.27383 -0.22352,0.40233 -0.508273,0.74915 -0.854728,1.03973 -0.33528,0.2794 -0.687459,0.54168 -1.056267,0.78755 l -0.670243,-0.93845 c -0.22352,-0.31292 -0.413527,-0.64851 -0.569991,-1.00614 -0.145288,-0.3688 -0.218074,-0.74882 -0.218074,-1.13998 0,-0.25705 0.03371,-0.51396 0.100769,-0.77101 0.07823,-0.25705 0.200813,-0.48613 0.368453,-0.6873 0.167639,-0.21235 0.374762,-0.36328 0.620634,-0.45268 0.245871,-0.10058 0.502788,-0.1509 0.771012,-0.1509 z m -0.587044,6.03529 c 0.06706,0.0782 0.128605,0.16173 0.184484,0.25115 l 0.167949,0.2682 2.497522,3.83904 c -0.145288,0.22352 -0.329418,0.41353 -0.552938,0.56999 -0.212344,0.15647 -0.447302,0.26833 -0.70435,0.33538 -0.257047,0.0559 -0.519325,0.0837 -0.787549,0.0837 -0.335279,0 -0.67086,-0.0503 -1.00614,-0.1509 -0.324103,-0.11176 -0.603496,-0.29588 -0.838191,-0.55294 -0.22352,-0.25704 -0.391052,-0.54768 -0.502812,-0.87178 -0.11176,-0.3241 -0.167949,-0.6538 -0.167949,-0.98908 0,-0.37999 0.07279,-0.74341 0.218075,-1.08986 0.156464,-0.35763 0.368947,-0.67022 0.63717,-0.93844 0.268224,-0.2794 0.552977,-0.53096 0.854729,-0.75448 z" />
    <path
       d="m 50.203246,185.09419 h 1.016 v -16.7132 l 3.175,11.0998 h 1.016 l 3.175,-11.0998 v 16.7132 h 1.016 v -18.669 h -1.4732 l -3.2258,11.2776 -3.2258,-11.2776 h -1.4732 z"
       id="path1255"
       style="font-weight:200;font-size:25.4px;line-height:1.25;font-family:'Iosevka Term';-inkscape-font-specification:'Iosevka Term Ultra-Light';fill:#204a87;stroke-width:0.264583" />
    <path
       d="m 61.187385,185.09419 h 0.90678 l 1.14427,-4.94411 h 4.46913 l 1.12268,4.94411 h 0.90678 l -3.77825,-15.86865 h -0.99314 z m 2.22377,-5.72135 1.12268,-4.85775 q 0.23749,-1.03632 0.47498,-2.07264 0.23749,-1.03632 0.45339,-2.07264 0.23749,1.03632 0.47498,2.07264 0.23749,1.03632 0.47498,2.07264 l 1.10109,4.85775 z"
       id="path1259"
       style="font-weight:200;font-size:21.59px;line-height:1.25;font-family:'Iosevka Term';-inkscape-font-specification:'Iosevka Term Ultra-Light';fill:#204a87;stroke-width:0.264583" />
  </g>
</svg>
